<svg id="Calque_1" data-name="Calque 1" xmlns="http://www.w3.org/2000/svg" viewBox="0 0 30 30"><defs><style>.cls-1{fill:#fff;}</style></defs><title>picto-memphis</title><circle class="cls-1" cx="15" cy="15" r="15"/><path d="M15,8.2c2.31,0,2.59,0,3.5.05a4.79,4.79,0,0,1,1.61.3,2.79,2.79,0,0,1,1,.65,2.88,2.88,0,0,1,.65,1,4.8,4.8,0,0,1,.29,1.61c.05.91.05,1.19.05,3.5s0,2.59-.05,3.51a4.92,4.92,0,0,1-.29,1.61,2.88,2.88,0,0,1-.65,1,2.79,2.79,0,0,1-1,.65,4.86,4.86,0,0,1-1.61.29c-.91.05-1.19.05-3.5.05s-2.59,0-3.51-.05a4.92,4.92,0,0,1-1.61-.29,2.87,2.87,0,0,1-1.65-1.65A5.21,5.21,0,0,1,8,18.82c0-.92,0-1.19,0-3.51s0-2.59,0-3.5a5.08,5.08,0,0,1,.29-1.61A2.87,2.87,0,0,1,9.9,8.55a4.85,4.85,0,0,1,1.61-.3c.92,0,1.19-.05,3.51-.05m0-1.56c-2.36,0-2.65,0-3.58.05a6.5,6.5,0,0,0-2.11.41A4.46,4.46,0,0,0,6.8,9.63a6.27,6.27,0,0,0-.4,2.11c-.05.92-.06,1.22-.06,3.57s0,2.65.06,3.58A6.27,6.27,0,0,0,6.8,21a4.46,4.46,0,0,0,2.53,2.53,6.27,6.27,0,0,0,2.11.4c.93.05,1.22.06,3.58.06s2.65,0,3.57-.06a6.27,6.27,0,0,0,2.11-.4A4.46,4.46,0,0,0,23.23,21a6.5,6.5,0,0,0,.41-2.11c0-.93.05-1.22.05-3.58s0-2.65-.05-3.57a6.5,6.5,0,0,0-.41-2.11A4.46,4.46,0,0,0,20.7,7.1a6.5,6.5,0,0,0-2.11-.41c-.92,0-1.22-.05-3.57-.05"/><path d="M15,10.86a4.46,4.46,0,1,0,4.45,4.45A4.46,4.46,0,0,0,15,10.86m0,7.35a2.9,2.9,0,1,1,2.89-2.9A2.9,2.9,0,0,1,15,18.21"/><path d="M20.69,10.68a1,1,0,1,1-1.05-1,1,1,0,0,1,1.05,1"/></svg>