<svg id="Calque_1" data-name="Calque 1" xmlns="http://www.w3.org/2000/svg" viewBox="0 0 30 30"><defs><style>.cls-1{fill:#fff;}.cls-2{fill-rule:evenodd;}</style></defs><title>picto-memphis</title><circle class="cls-1" cx="15" cy="15" r="15"/><path class="cls-2" d="M7.74,19a6.08,6.08,0,0,0,4.36-1.23,3.08,3.08,0,0,1-2.79-2.09,3.2,3.2,0,0,0,1.31-.05,3,3,0,0,1-2.35-2.95A3.31,3.31,0,0,0,9.61,13a3,3,0,0,1-1.24-1.82A2.93,2.93,0,0,1,8.7,9a8.6,8.6,0,0,0,6.16,3.13c0-.2,0-.37,0-.54A3,3,0,0,1,18.4,8.51a2.85,2.85,0,0,1,1.49.79.16.16,0,0,0,.2.06,5.43,5.43,0,0,0,1.6-.6l.14-.06h0a3.13,3.13,0,0,1-1.23,1.59,5.32,5.32,0,0,0,1.63-.43,5.63,5.63,0,0,1-.92,1.07,5.81,5.81,0,0,1-.46.38.28.28,0,0,0-.1.23,8.26,8.26,0,0,1-.31,2.52,9.17,9.17,0,0,1-.84,2A8.67,8.67,0,0,1,18.21,18a7.78,7.78,0,0,1-2.64,1.74,8.43,8.43,0,0,1-2.93.61,8.32,8.32,0,0,1-2.11-.17,8.07,8.07,0,0,1-2-.7L7.73,19Z"/></svg>