<svg id="Calque_1" data-name="Calque 1" xmlns="http://www.w3.org/2000/svg" viewBox="0 0 121.27 59.99"><defs><style>.cls-1{fill:#c10f3a;}</style></defs><title>picto-memphis</title><path class="cls-1" d="M0,18.73l2.7-2.91a8.52,8.52,0,0,0,5.72,2.41c2.24,0,3.58-1.06,3.58-2.5,0-1-.52-1.87-2.66-2.46L6,12.36C2.17,11.3.73,9.34.73,6.61.73,3.17,3.52.53,8.34.53a10.81,10.81,0,0,1,7.92,3.08L13.44,6.43A7.17,7.17,0,0,0,8.42,4c-2,0-3.19.91-3.19,2.17S6.05,8.1,7.87,8.63L11,9.51c4.28,1.23,5.61,3.08,5.61,5.73,0,3.58-3.23,6.43-8.14,6.43A12.36,12.36,0,0,1,0,18.73Z"/><path class="cls-1" d="M26.05,21.6c-3.41,0-5.41-1.61-5.41-5V9.16H17.8V5.81h2.84V1.5h4.2V5.81h4.82V9.16H24.84v6.63A2,2,0,0,0,27,18a4.63,4.63,0,0,0,2.23-.51l1,3.23a10,10,0,0,1-4.19.88Z"/><path class="cls-1" d="M37.6,19.2a2.38,2.38,0,1,1-2.37-2.38A2.38,2.38,0,0,1,37.6,19.2Z"/><path class="cls-1" d="M56.07,13.91V.82h4.49V13.94c0,4.82-3.11,7.75-8.19,7.75C48,21.69,45,19,44.6,14.85l4.07-.61c.27,2.49,1.83,3.69,3.7,3.69,2.21,0,3.7-1.43,3.7-4Z"/><path class="cls-1" d="M74.11,19.79a6.46,6.46,0,0,1-4.7,1.9,5.27,5.27,0,0,1-5.55-5.63V5.81h4.23v9.31a2.68,2.68,0,0,0,2.79,3,4.68,4.68,0,0,0,3.17-1.32v-11h4.22V21.37H74.14l0-1.58Z"/><path class="cls-1" d="M89,18.11a4.17,4.17,0,0,0,3.28-1.5v-6A4.25,4.25,0,0,0,89,9.1c-2.35,0-4,1.88-4,4.49s1.64,4.52,4,4.52Zm3.43,1.73a6,6,0,0,1-4.41,1.79c-4,0-7.07-3.2-7.07-8,0-4.64,3.2-8,7.31-8a6.34,6.34,0,0,1,4,1.32V0h4.23V21.37H92.49l0-1.53Z"/><path class="cls-1" d="M103.1,12.1h6.83a3.39,3.39,0,0,0-3.4-3.35,3.57,3.57,0,0,0-3.43,3.35ZM107,21.67a7.87,7.87,0,0,1-8-8.11c0-4.7,3.38-8,7.58-8,4.84,0,7.39,3.64,7.39,8,0,.41,0,.73,0,1.18H103.06a4.09,4.09,0,0,0,4.08,3.66,4.19,4.19,0,0,0,3.59-1.82l2.87,1.71A7.77,7.77,0,0,1,107,21.67Z"/><polygon class="cls-1" points="17.15 47.49 3.77 47.49 3.77 59.55 0.83 59.55 0.83 33.81 3.77 33.81 3.77 44.95 17.15 44.95 17.15 33.81 20.09 33.81 20.09 59.55 17.15 59.55 17.15 47.49 17.15 47.49"/><path class="cls-1" d="M26.9,48.48H38.52c-.22-3.31-2.39-5.88-5.77-5.88-2.91,0-5.26,2.32-5.85,5.88ZM33.3,60C28.19,60,24,55.8,24,50.06c0-6,4-9.89,8.82-9.89,5.92,0,8.68,4.67,8.68,9.56a10,10,0,0,1,0,1.1H26.86c.33,3.83,2.95,6.66,6.36,6.66A6.54,6.54,0,0,0,39,54.33l2.21,1.28A9.08,9.08,0,0,1,33.3,60Z"/><path class="cls-1" d="M48.52,47V59.55H45.77v-19h2.72l0,3.38a8.17,8.17,0,0,1,7.29-3.79l.1,2.69A8.08,8.08,0,0,0,48.52,47Z"/><path class="cls-1" d="M66.36,57.49c3.79,0,6.47-3,6.47-7.39s-2.68-7.43-6.47-7.43-6.47,3-6.47,7.43,2.68,7.39,6.47,7.39Zm0-17.32c5.26,0,9.26,4.16,9.26,9.93S71.62,60,66.36,60s-9.3-4.19-9.3-9.89,4-9.93,9.3-9.93Z"/><path class="cls-1" d="M81.52,48.48H93.13c-.22-3.31-2.38-5.88-5.77-5.88-2.9,0-5.25,2.32-5.84,5.88ZM87.91,60c-5.11,0-9.3-4.19-9.3-9.93,0-6,4-9.89,8.83-9.89,5.91,0,8.67,4.67,8.67,9.56,0,.41,0,.7,0,1.1H81.48c.33,3.83,2.94,6.66,6.36,6.66a6.55,6.55,0,0,0,5.74-3.16l2.2,1.28A9.08,9.08,0,0,1,87.91,60Z"/><path class="cls-1" d="M100.79,55.14a8,8,0,0,0,5.62,2.53c2.65,0,4.16-1.28,4.16-3.05,0-1.51-.92-2.39-2.87-3l-3.53-1c-3.16-.92-4.63-2.72-4.63-5.14,0-3.42,2.83-5.3,6.29-5.3a9.28,9.28,0,0,1,7,3.2l-2,1.73a6.83,6.83,0,0,0-5.22-2.65c-2.17,0-3.46,1.14-3.46,2.76s1,2.28,2.84,2.87l3.38,1.06c3.57,1.14,4.78,2.65,4.78,5.19,0,3.56-2.94,5.66-6.84,5.66a10.5,10.5,0,0,1-7.5-3.13l2-1.72Z"/><path class="cls-1" d="M118.27,34.06a3,3,0,1,0,3,3,3,3,0,0,0-3-3m0,5.43A2.46,2.46,0,1,1,120.69,37a2.37,2.37,0,0,1-2.42,2.45"/><path class="cls-1" d="M118.85,37.15a.83.83,0,0,0,.48-.72.78.78,0,0,0-.87-.79h-1.25v2.77h.56V37.27h.51l.66,1.14h.61l-.74-1.24,0,0Zm-.52-.27h-.56V36h.58a.41.41,0,0,1,.44.43.42.42,0,0,1-.46.42"/></svg>