<svg id="Calque_1" data-name="Calque 1" xmlns="http://www.w3.org/2000/svg" viewBox="0 0 170 162.34"><defs><style>.cls-1{fill:#fff;}</style></defs><title>picto-memphis</title><path class="cls-1" d="M148.6,156.81a.85.85,0,0,1,1,.85.87.87,0,0,1-1,.86h-1.12v-1.71Zm-1.87,4.4h.72v-2.13h1l1.09,1.72a.78.78,0,0,0,.76.42,2.07,2.07,0,0,0,.35,0v-.56h-.2a.33.33,0,0,1-.31-.17l-1-1.49a1.4,1.4,0,0,0-.53-2.75h-2v5Zm-4.81,0h3.45v-.58h-2.73v-1.72h2.06v-.58h-2.06v-1.51h2.7v-.59h-3.42v5Zm-4-4.38a1.89,1.89,0,0,1,0,3.77h-1v-3.77Zm-1.7,4.38H138a2.42,2.42,0,0,0,2.54-2.49,2.39,2.39,0,0,0-2.49-2.49h-1.8v5ZM131,157.72l0-.48.32.48,2.39,3.49h.76v-5h-.67l0,3.53v.46l-.3-.46-2.43-3.53h-.74v5H131v-3.49Zm-4.25,2.93a1.18,1.18,0,0,1-1.25-1.26v-3.16h-.72v3.21a1.81,1.81,0,0,0,2,1.85,1.83,1.83,0,0,0,2-1.85v-3.21H128v3.16a1.18,1.18,0,0,1-1.25,1.26m-5.77,0a1.94,1.94,0,1,1,1.76-1.93,1.8,1.8,0,0,1-1.76,1.93m0-4.5a2.57,2.57,0,1,0,2.48,2.57,2.47,2.47,0,0,0-2.48-2.57m-5.94,5.06V159h2.07v-.6h-2.07v-1.54h2.7v-.59h-3.41v5Zm-4,.21a1.35,1.35,0,0,0,.19-.61.53.53,0,0,0-.54-.59.51.51,0,0,0-.51.51.51.51,0,0,0,.43.5l-.45,1.11h.46l.42-.92Zm-3.82-.14c1.09,0,1.83-.64,1.83-1.48,0-.61-.3-1-1.23-1.3l-.85-.27c-.54-.17-.8-.39-.8-.78s.36-.72,1-.72a1.7,1.7,0,0,1,1.3.63l.5-.41a2.27,2.27,0,0,0-1.8-.79c-1,0-1.66.55-1.66,1.38,0,.61.36,1.05,1.18,1.28l.87.27c.64.2.81.45.81.78,0,.49-.44.84-1.11.84a2.05,2.05,0,0,1-1.47-.63l-.46.45a2.66,2.66,0,0,0,1.93.75m-5.87-2,.87-2.32.88,2.32Zm2.48,1.94h.75l-1.94-5h-.81l-1.94,5h.73l.51-1.37h2.18l.52,1.37Zm-9.42-3.28v-.67l.3.69,1.28,2.9h.55l1.29-2.9.31-.7,0,.68v3.28h.69v-5H97.9l-1.38,3.11-.25.63-.27-.63-1.38-3.11h-.88v5h.67v-3.28Zm-4.56,2.72a1.94,1.94,0,1,1,1.75-1.93,1.8,1.8,0,0,1-1.75,1.93m0-4.5a2.57,2.57,0,1,0,2.47,2.57,2.47,2.47,0,0,0-2.47-2.57m-4.63,5.06h.72v-5h-.72v2.1H82.74v-2.1H82v5h.72V159h2.47v2.26Zm-8.53-4.39H78.4v4.39h.72v-4.39h1.72v-.59H76.68v.59Zm-2.57-.59h-.77l-1.44,2.34-1.45-2.34h-.79l1.86,2.93v2.05h.72v-2.05l1.87-2.93Zm-9,1.49,0-.48.32.48,2.39,3.49h.76v-5h-.67l0,3.53v.46l-.3-.46-2.43-3.53h-.73v5h.67v-3.49Zm-5.84,0,0-.48.32.48L62,161.21h.77v-5H62l0,3.53v.46l-.31-.46-2.42-3.53H58.6v5h.67v-3.49Zm-5,1.55.87-2.32.88,2.32Zm2.48,1.94h.75l-1.94-5h-.81l-1.94,5h.73l.51-1.37h2.18l.52,1.37Zm-7.26-4.38a1.89,1.89,0,0,1,0,3.77h-1v-3.77Zm-1.7,4.38h1.75a2.42,2.42,0,0,0,2.54-2.49,2.39,2.39,0,0,0-2.49-2.49h-1.8v5Z"/><path class="cls-1" d="M44,159.56a.77.77,0,0,0,.79-.76A.78.78,0,0,0,44,158a.77.77,0,0,0-.78.77.76.76,0,0,0,.78.76"/><path class="cls-1" d="M38.17,160.65a1.95,1.95,0,0,1,0-3.87,1.58,1.58,0,0,1,1.49.93l.63-.29a2.21,2.21,0,0,0-2.11-1.27,2.57,2.57,0,0,0,0,5.13,2.23,2.23,0,0,0,2.1-1.27l-.61-.26a1.57,1.57,0,0,1-1.49.9m-6.44-1.38.88-2.33.87,2.33Zm2.48,1.94H35l-1.94-5h-.82l-1.93,5H31l.52-1.37h2.17l.52,1.37Zm-6.53.07c1.09,0,1.83-.64,1.83-1.48,0-.61-.3-1-1.23-1.3l-.85-.27c-.54-.18-.8-.4-.8-.78s.36-.72,1-.72a1.68,1.68,0,0,1,1.29.63l.51-.42a2.31,2.31,0,0,0-1.8-.78c-1,0-1.67.55-1.67,1.38,0,.62.37,1.05,1.18,1.28l.88.27c.64.2.8.45.8.78s-.44.84-1.11.84a2.07,2.07,0,0,1-1.47-.63l-.46.45a2.66,2.66,0,0,0,1.93.75M25,160.6H22.24v-4.37h-.72v5H25v-.61Zm-7.8-1.33.87-2.33.88,2.33Zm2.48,1.94h.75l-1.93-5h-.82l-1.94,5h.73l.52-1.37h2.17l.52,1.37Z"/><path class="cls-1" d="M14.58,127.74l0-.54a3.92,3.92,0,0,1-2.77-1.77,29.47,29.47,0,0,1-3-4.93,4.34,4.34,0,0,0,3.2-4.14c0-2.36-1.9-4.26-5.12-4.26-1.28,0-2.39.13-4.39.13-.75,0-1.62,0-2.43,0V113l1.21.12c.35.05.56.22.56.57v12.61c0,.51-.21.63-.56.67L0,127.05v.74H6.21v-.74l-1.14-.15a.41.41,0,0,1-.42-.46v-5.68c.47,0,1,0,1.28,0a45.9,45.9,0,0,0,3.26,5.45,4.09,4.09,0,0,0,3.67,1.68,11.17,11.17,0,0,0,1.72-.19m-8.72-8c-.44,0-.83,0-1.21-.06v-6.31a12,12,0,0,1,1.56-.07c1.77,0,2.9,1.14,2.9,3.22a2.88,2.88,0,0,1-3.25,3.22m17.23,6.23-.49-.59a5.34,5.34,0,0,1-2.69.91c-2.19,0-3.45-2-3.58-4.4H22.9v-.65c0-2.55-1.56-4.44-4.09-4.44-2.31,0-4.8,2.23-4.8,5.7,0,3.79,2.6,5.56,5,5.56,1.51,0,3.24-1.31,4.11-2.09m-4.63-8.08c.84,0,2,.59,2.24,2.84l-4.35.15c.17-1.91,1.07-3,2.11-3m13.42,6.67c0-1.45-.79-2.46-2.73-3.09L27.81,121c-1.46-.49-1.84-1.08-1.84-1.81s.64-1.41,1.77-1.41c1.51,0,2.13.92,2.64,2.27h.79l0-2.61a6.67,6.67,0,0,0-2.9-.67c-2.36,0-4.11,1.47-4.11,3.43,0,1.56.89,2.48,2.92,3.13l1.17.38c1.32.42,1.62,1.08,1.62,1.85s-.68,1.65-2,1.65c-1.51,0-2.15-.91-2.7-2.7H24.2l.15,2.91a7.28,7.28,0,0,0,3.11.71c2.35,0,4.42-1.28,4.42-3.6M42,125.93l-.48-.59a5.38,5.38,0,0,1-2.69.91c-2.2,0-3.46-2-3.58-4.4h6.56v-.65c0-2.55-1.55-4.44-4.09-4.44-2.3,0-4.8,2.23-4.8,5.7,0,3.79,2.6,5.56,5,5.56,1.51,0,3.24-1.31,4.11-2.09m-4.62-8.08c.83,0,2,.59,2.24,2.84l-4.35.15c.17-1.91,1.06-3,2.11-3M49.15,128.1l3.49-.57,0-.61-.51-.06c-.68-.08-1-.44-1-1.16l0-5.91a3,3,0,0,0-3.35-3.1c-2,0-4.52,1.6-4.52,3.22a1.86,1.86,0,0,0,.34,1.12l2.11-.84a2.5,2.5,0,0,1-.38-1.16c0-.63.42-1.14,1.41-1.14a1.85,1.85,0,0,1,1.83,1.85l0,1.88-3.18,1.15c-1.57.58-2.49,1.48-2.49,2.89a2.43,2.43,0,0,0,2.75,2.48c.92,0,2.05-.86,3-1.57a3.35,3.35,0,0,0,.47,1.53m-3.82-3.18a1.58,1.58,0,0,1,1.26-1.7l2-.63,0,3.2a4.06,4.06,0,0,1-1.77.69,1.45,1.45,0,0,1-1.49-1.56m13.41,2.17-1-.12c-.3,0-.51-.13-.51-.55v-5.79a3,3,0,0,1,2.11-1.87,2.77,2.77,0,0,1,1.81.52l.62-2.14a2.61,2.61,0,0,0-1.92-.51c-1.17.13-1.94,1.26-2.69,2.74A15,15,0,0,0,57,116.8l-3.92.8,0,.61.7.06c.58,0,.82.45.82,1.16v7c0,.42-.19.5-.51.55l-.9.12v.7h5.5v-.7Zm5.46-5.53c0-2.51,1.24-3.6,2.64-3.6,1.14,0,1.88.44,2.67,2h.74v-2.42a5.4,5.4,0,0,0-3-.82,5.53,5.53,0,0,0-5.4,5.81,5,5,0,0,0,5,5.42c1.49,0,3-1.36,3.84-2.1l-.43-.52a4.65,4.65,0,0,1-2.52.88c-2.21,0-3.45-2.23-3.45-4.69m12.26,5.53-1-.12c-.32,0-.51-.13-.51-.55v-7a3.3,3.3,0,0,1,2-.82,1.7,1.7,0,0,1,1.9,1.79v6c0,.42-.21.5-.51.55l-.87.12v.7h5.28v-.7L82,127c-.32,0-.52-.13-.52-.55v-6.55a3,3,0,0,0-3.17-3.07A4.71,4.71,0,0,0,75,118.46v-4.95c0-.77,0-1.49.06-2.08-.83.17-3.37.63-4.24.78l0,.59.81.06c.47,0,.73.43.73,1.16v12.4c0,.42-.2.5-.51.55l-.79.12v.7h5.39v-.7Zm17.36,0-1.22-.13c-.34,0-.55-.16-.55-.67v-5.66H99v5.66c0,.51-.22.63-.56.67l-1.21.13v.74h6.41v-.74l-1.21-.13c-.34,0-.56-.16-.56-.67v-12.5c0-.51.22-.63.56-.68l1.21-.12v-.74H97.19V113l1.21.12c.34.05.56.17.56.68v5.64H92.05v-5.64c0-.51.21-.63.55-.68l1.22-.12v-.74H87.4V113l1.21.12c.35.05.56.17.56.68v12.5c0,.51-.21.63-.56.67l-1.21.13v.74h6.42v-.74Zm10.36-4.44c0,3.13,2.07,5.45,5.14,5.45a5.69,5.69,0,0,0,5.54-5.85,5.13,5.13,0,0,0-5.18-5.45,5.67,5.67,0,0,0-5.5,5.85m8.06,0c0,2.77-1.07,4.37-2.6,4.37s-2.84-1.81-2.84-4.69,1-4.38,2.6-4.38,2.84,1.83,2.84,4.7m11.58,2c0-1.45-.79-2.46-2.73-3.09l-1.34-.44c-1.46-.49-1.84-1.08-1.84-1.81s.64-1.41,1.77-1.41c1.52,0,2.13.92,2.64,2.27h.8l0-2.61a6.67,6.67,0,0,0-2.9-.67c-2.36,0-4.11,1.47-4.11,3.43,0,1.56.89,2.48,2.92,3.13l1.17.38c1.32.42,1.62,1.08,1.62,1.85s-.68,1.65-2,1.65c-1.52,0-2.16-.91-2.71-2.7h-.92l.15,2.91a7.3,7.3,0,0,0,3.12.71c2.34,0,4.41-1.28,4.41-3.6m6.48,7.77-1.09-.13c-.32,0-.51-.12-.51-.54v-3.94a4.21,4.21,0,0,0,1.7.36,5.87,5.87,0,0,0,5.67-6c0-3.24-1.91-5.26-4.34-5.26a4.59,4.59,0,0,0-3.11,1.45,11.24,11.24,0,0,0-.16-1.43l-3.92.8,0,.61.6.06c.64.07.92.45.92,1.16v12.19c0,.42-.19.5-.52.54l-.89.13V133h5.61v-.69Zm.27-13.8c1.78,0,3,1.57,3,4,0,3-1.49,4.32-3,4.32a2.84,2.84,0,0,1-1.83-.66v-7a3.06,3.06,0,0,1,1.87-.71m10.6-5.1a1.6,1.6,0,1,0-1.6,1.58,1.6,1.6,0,0,0,1.6-1.58m1.15,14.4v-.7l-.89-.12c-.32,0-.51-.13-.51-.55v-7.6c0-.76,0-1.47.06-2.06-.83.19-3.36.67-4.22.84l0,.61.79.06c.53,0,.73.47.73,1.14v7c0,.42-.2.5-.51.55l-.9.12v.7Zm7.23-1-.23-.63a4.11,4.11,0,0,1-1.45.29c-.68,0-1.22-.27-1.19-1.68v-6.4h2.66v-1.2h-2.66V114.4l-2.63,1.18v1.64h-1.51v1.2h1.51v6.73a2.51,2.51,0,0,0,2.67,2.81,6.14,6.14,0,0,0,2.83-1.12m7,1.26,3.49-.57,0-.61-.51-.06c-.68-.08-1-.44-1-1.16l0-5.91a3,3,0,0,0-3.35-3.1c-2,0-4.52,1.6-4.52,3.22A1.79,1.79,0,0,0,151,121l2.11-.84a2.62,2.62,0,0,1-.38-1.16c0-.63.42-1.14,1.41-1.14a1.85,1.85,0,0,1,1.83,1.85l0,1.88-3.17,1.15c-1.58.58-2.5,1.48-2.5,2.89a2.43,2.43,0,0,0,2.75,2.48c.91,0,2.05-.86,3-1.57a3.36,3.36,0,0,0,.48,1.53m-3.82-3.18a1.58,1.58,0,0,1,1.26-1.7l2-.63,0,3.2a4.1,4.1,0,0,1-1.77.69,1.44,1.44,0,0,1-1.49-1.56m11.92,1.5V113.51c0-.77,0-1.49.06-2.08-.83.17-3.37.63-4.24.78l0,.59.81.06c.47,0,.73.43.73,1.16v12.4c0,.42-.19.5-.52.55l-.89.12v.7H166v-.7l-.87-.12c-.32,0-.51-.13-.51-.55"/><path class="cls-1" d="M11.17,100.89c0-2-.79-3.41-3.83-4.39l-2-.63C3.56,95.28,3,94.41,3,93.19c0-1.47,1.09-2.36,2.78-2.36s2.81.72,3.49,3h.85V90.58a9.07,9.07,0,0,0-4-1c-2.95,0-5.21,1.88-5.21,4.7,0,2,.94,3.45,3.86,4.37l1.73.55c1.9.61,2.49,1.5,2.49,2.83s-1.1,2.5-3.15,2.5-3.18-.8-3.86-3.28H1l0,3.49a11.62,11.62,0,0,0,4.56.95c3.12,0,5.63-1.94,5.63-4.85m7.61,3.63-.23-.63a4.11,4.11,0,0,1-1.45.29c-.68,0-1.21-.28-1.19-1.69V96.1h2.66V94.9H15.91V92.08l-2.63,1.17V94.9H11.77v1.2h1.51v6.73a2.5,2.5,0,0,0,2.67,2.8,6.05,6.05,0,0,0,2.83-1.11m4.25-.4a1.54,1.54,0,1,0-1.54,1.51A1.52,1.52,0,0,0,23,104.12m8.63-12.7c0-.5.22-.63.58-.67l1.19-.12v-.74h-6.5v.74l1.34.1c.28,0,.41.17.41.48v14a4.27,4.27,0,0,1-3.16,4.55l.3.65c3.62-.53,5.84-2.36,5.84-6.08V91.42Zm10.19,14.36,3.67-.57,0-.61-.53-.06c-.68-.09-1-.44-1-1.16V96.5c0-.76,0-1.48.06-2.07l-4.22.85,0,.61.79.06c.53,0,.72.46.72,1.14v6.29a3.15,3.15,0,0,1-1.85.74,1.74,1.74,0,0,1-1.9-1.9V96.5c0-.76,0-1.48.07-2.07l-4.22.85,0,.61.78.06c.54,0,.73.46.73,1.14V103a2.88,2.88,0,0,0,3.09,2.86,5.35,5.35,0,0,0,3.37-1.62,5.18,5.18,0,0,0,.36,1.56m15.91-.57,0-.61-.62-.06c-.68-.07-1-.44-1-1.16V91.19c0-.78,0-1.49.06-2.08l-4.35.78,0,.59.91.06c.48,0,.73.42.73,1.16v3.11a4.26,4.26,0,0,0-1.71-.36,5.88,5.88,0,0,0-5.67,6c0,3.24,1.92,5.27,4.35,5.27a4.67,4.67,0,0,0,3.13-1.48,5,5,0,0,0,.37,1.54l3.75-.57Zm-9-5.24c0-3,1.49-4.32,3-4.32a2.89,2.89,0,0,1,1.83.66v7a3.07,3.07,0,0,1-1.88.72c-1.77,0-2.94-1.58-2.94-4m18.79,3.64L67,103a5.3,5.3,0,0,1-2.68.9c-2.2,0-3.45-2-3.58-4.39h6.56v-.65c0-2.55-1.55-4.45-4.09-4.45-2.3,0-4.8,2.23-4.8,5.71,0,3.78,2.6,5.55,5,5.55,1.52,0,3.24-1.3,4.12-2.08m-4.63-8.08c.83,0,2,.59,2.24,2.84l-4.35.15c.17-1.92,1.06-3,2.11-3m23.28,9,0-3.39h-1c-.62,2.53-1.41,3.44-4.16,3.44-3.19,0-5.48-2.68-5.56-6.89s2.16-6.88,5.44-6.88c2.34,0,3.45,1,4.13,3.24h1L86,90.67a11.48,11.48,0,0,0-4.73-1.06c-5.33,0-9,3.58-9,8.26s3.37,7.89,8.66,7.89a11,11,0,0,0,5.22-1.27m6.87.28-1-.13c-.32,0-.52-.12-.52-.54v-7a3.27,3.27,0,0,1,2-.82,1.69,1.69,0,0,1,1.9,1.78v6c0,.42-.21.5-.51.54l-.88.13v.69h5.29v-.69l-.79-.13c-.32,0-.51-.12-.51-.54V97.55a3,3,0,0,0-3.18-3.07,4.73,4.73,0,0,0-3.35,1.66v-5c0-.78,0-1.49.07-2.08-.83.17-3.37.63-4.25.78l.05.59.81.06c.47,0,.72.42.72,1.16v12.4c0,.42-.19.5-.51.54l-.78.13v.69H93v-.69Zm11.4-13.71a1.6,1.6,0,1,0-1.59,1.59,1.6,1.6,0,0,0,1.59-1.59m1.16,14.4v-.69l-.9-.13c-.32,0-.51-.12-.51-.54V96.5c0-.76,0-1.48.07-2.07-.84.19-3.37.68-4.23.85l0,.61.79.06c.54,0,.73.46.73,1.14v7c0,.42-.19.5-.52.54l-.89.13v.69Zm4.69-1.36V91.19c0-.78,0-1.49.06-2.08-.83.17-3.37.63-4.24.78l0,.59.81.06c.47,0,.72.42.72,1.16v12.4c0,.42-.19.5-.5.54l-.9.13v.69h5.39v-.69l-.87-.13c-.32,0-.51-.12-.51-.54m13.86,1.11,0-.61-.61-.06c-.68-.07-1-.44-1-1.16V91.19c0-.78,0-1.49.06-2.08l-4.35.78,0,.59.92.06c.47,0,.73.42.73,1.16v3.11a4.29,4.29,0,0,0-1.71-.36,5.89,5.89,0,0,0-5.68,6c0,3.24,1.93,5.27,4.35,5.27a4.68,4.68,0,0,0,3.14-1.48,5,5,0,0,0,.36,1.54l3.76-.57Zm-9-5.24c0-3,1.5-4.32,3-4.32a2.92,2.92,0,0,1,1.84.66v7A3.12,3.12,0,0,1,118,104c-1.76,0-2.94-1.58-2.94-4m15,4.8-1-.13c-.3,0-.52-.12-.52-.54V98.31a3.07,3.07,0,0,1,2.12-1.88,2.8,2.8,0,0,1,1.81.53l.62-2.15a2.58,2.58,0,0,0-1.92-.5c-1.17.12-1.94,1.26-2.69,2.73a14.88,14.88,0,0,0-.17-2.56l-3.92.8,0,.61.7.06c.58,0,.81.44.81,1.16v7c0,.42-.19.5-.51.54l-.89.13v.69h5.5v-.69Zm12.15-1.16-.49-.59a5.33,5.33,0,0,1-2.69.9c-2.19,0-3.45-2-3.58-4.39h6.57v-.65c0-2.55-1.56-4.45-4.09-4.45-2.31,0-4.8,2.23-4.8,5.71,0,3.78,2.6,5.55,5,5.55,1.52,0,3.25-1.3,4.12-2.08m-4.63-8.08c.84,0,2,.59,2.24,2.84l-4.34.15c.16-1.92,1.06-3,2.1-3m10.81,9.24-.87-.13c-.3,0-.51-.12-.51-.54v-7a3.24,3.24,0,0,1,2-.82,1.69,1.69,0,0,1,1.9,1.78v6c0,.42-.21.5-.51.54l-.87.13v.69H155v-.69l-.89-.13c-.33,0-.52-.12-.52-.54V97.55a3,3,0,0,0-3.26-3.07A4.72,4.72,0,0,0,147,96.22a12.65,12.65,0,0,0-.16-1.74l-3.93.8,0,.61.71.06c.58,0,.81.44.81,1.16v7c0,.42-.19.5-.52.54l-.89.13v.69h5.39v-.69Zm7.85-11.37c0,.66-.49,1.24-1.26,1.9l.43.38c1.47-1.08,2.62-2.36,2.62-4a1.6,1.6,0,0,0-1.58-1.73A1.71,1.71,0,0,0,155,92.08c.8.27,1.34.61,1.34,1.32m9.25,8.8c0-1.45-.79-2.46-2.73-3.09l-1.34-.44c-1.45-.49-1.83-1.08-1.83-1.82s.64-1.41,1.77-1.41c1.51,0,2.13.93,2.65,2.28h.78l0-2.61a6.54,6.54,0,0,0-2.9-.68c-2.36,0-4.11,1.48-4.11,3.44,0,1.55.89,2.48,2.91,3.13l1.18.38c1.32.42,1.62,1.07,1.62,1.85s-.69,1.64-2,1.64c-1.51,0-2.15-.9-2.7-2.69h-.92l.15,2.9a7.12,7.12,0,0,0,3.11.72c2.34,0,4.41-1.28,4.41-3.6"/><path class="cls-1" d="M166.7,82.45a3.28,3.28,0,1,0,3.3,3.28,3.25,3.25,0,0,0-3.3-3.28m0,6a2.71,2.71,0,1,1,2.67-2.7,2.61,2.61,0,0,1-2.67,2.7"/><path class="cls-1" d="M167.34,85.86a.93.93,0,0,0,.53-.8.86.86,0,0,0-1-.87h-1.37v3h.61V86h.57l.72,1.25h.67l-.81-1.36,0,0Zm-.57-.31h-.62v-.93h.65a.45.45,0,0,1,.48.47.46.46,0,0,1-.51.46"/><path class="cls-1" d="M100,68.51l0,0c1.79-2.58,4.26-5.91,5.15-6.52l.17-.08a8.77,8.77,0,0,0,4.57-1.37,29.47,29.47,0,0,0,2.22-2,19.53,19.53,0,0,0,1.34-2.74h0l0,.06.13-.28,0-.08.2-.63a.53.53,0,0,0-.28-.45.85.85,0,0,0-.43,0l0,0a1.93,1.93,0,0,0,.2-.65v0a.65.65,0,0,0-.31-.47,1,1,0,0,0-.66,0,.87.87,0,0,0-.29-.27s-.34-.14-.89.18a2.63,2.63,0,0,0-.59.57c0-.17.05-.34.05-.34a.62.62,0,0,0-.37-.39,1,1,0,0,0-.89.17,4.66,4.66,0,0,0-.93,1.17,3.87,3.87,0,0,0-.84,1,2.82,2.82,0,0,1-1.64.18,5.14,5.14,0,0,0,1.18-.86,3.11,3.11,0,0,0,.8-1.81,2.45,2.45,0,0,0,0-.27.75.75,0,0,0-.37-.53c-.53-.26-1.15.27-1.27.38s-.19.19-.28.3a2.16,2.16,0,0,0-.89.41,1.86,1.86,0,0,1-.69.34,2.78,2.78,0,0,0-1,.53l0,0h0l-.82.54a6.69,6.69,0,0,0-1.73,1.33c-.93.92-2.09,2.06-7.29,3.79,0-1.91-1.22-7-1.46-9-.48-3.45-4.49-8.21-7.38-11.23C87.33,40.8,88.86,41,90.35,39c.4-.62,1,0,1.59-.06.82-.43.71-.66.71-1.26.25-.63.89-.32,1.37-.4,1.21-.2.49-1.47,1-2.11,5.32-.32-.68-5.21,2.9-7.24A10.29,10.29,0,0,0,102.15,24c.86-1.16,1-.25,1.68-1.2C105,18.6,103,13.46,100.4,9.91,87.18-7.08,72.09.75,67.69,11.28,65.87,14,66.43,17.85,66.33,21c-.34,1.11-1,1.08-2,.43a2.42,2.42,0,0,0,2.27,2.79c.08.28.58.71.79,1a4.91,4.91,0,0,1-2.6-.45,1.72,1.72,0,0,0,.45,1.37,3.17,3.17,0,0,0,2.25,2.59c2.12.86,1.12,3.76.88,5-.08.26-.16.53-.23.78a5.67,5.67,0,0,0-3.79,4.11c-.24,4.47-2.54,8.17-2.5,12.79a7.16,7.16,0,0,0,0,1c1.14,5-.32,11.54-.07,16.69A128.36,128.36,0,0,0,16.73,84.43c19.39-7.8,42-12.29,66.19-12.29s46.8,4.49,66.19,12.29A129.36,129.36,0,0,0,100,68.51M85.48,53a.45.45,0,0,1-.36.29,16.28,16.28,0,0,0-11.94,5.62s-.37.35-1.28-.37a1,1,0,0,1-.44-1.12c1.24-3.13,4.45-5.19,9.52-6.13l.15,0c1-.14,3.45-.48,4.27,1.14a.8.8,0,0,1,.08.59"/><path class="cls-1" d="M161.44,146.93a.58.58,0,1,0,0,1.15.58.58,0,1,0,0-1.15M157,143.07a1.28,1.28,0,0,1,1.35,1.44V148h.88v-3.7a1.93,1.93,0,0,0-2-2,2.51,2.51,0,0,0-1.83.76l0-.64h-.86V148h.88v-4.22a2.24,2.24,0,0,1,1.64-.74m-6.69,0a1.69,1.69,0,0,1,1.69,1.7h-3.41a1.82,1.82,0,0,1,1.72-1.7m2.53,3.82-.7-.39a1.92,1.92,0,0,1-1.69.92,2,2,0,0,1-1.88-1.93h4.36c0-.11,0-.21,0-.33a2.59,2.59,0,0,0-2.61-2.84,2.73,2.73,0,0,0-2.67,2.92,2.84,2.84,0,0,0,2.81,2.95,2.73,2.73,0,0,0,2.37-1.3M147,143.12l0-.83a2.46,2.46,0,0,0-2.18,1.13v-1h-.86V148h.87v-3.7a2.46,2.46,0,0,1,2.22-1.21m-9.43,2.09a2,2,0,0,1,1.93-2.14,2.08,2.08,0,0,1,1.62.77v2.76a2,2,0,0,1-1.62.75,2,2,0,0,1-1.93-2.14m3.56,2.82H142v-7.91h-.88v2.77a2.56,2.56,0,0,0-1.72-.6,2.94,2.94,0,0,0,0,5.86,2.41,2.41,0,0,0,1.72-.69V148Zm-6.87,0h.88v-7.92h-.88V148Zm-1.91-5.62h-.87V148h.87v-5.62Zm-.44-1a.61.61,0,0,0,.62-.6.61.61,0,0,0-.62-.61.6.6,0,0,0-.6.61.6.6,0,0,0,.6.6m-4.56,1.69a1.28,1.28,0,0,1,1.35,1.44V148h.88v-3.7a1.92,1.92,0,0,0-2-2,2.54,2.54,0,0,0-1.83.75v-2.92h-.87V148h.87v-4.22a2.24,2.24,0,0,1,1.64-.74m-6.22-.78a2.94,2.94,0,0,0,0,5.87,2.56,2.56,0,0,0,2.36-1.49l-.77-.34a1.67,1.67,0,0,1-1.64,1,2.17,2.17,0,0,1,0-4.28,1.67,1.67,0,0,1,1.61,1l.79-.35a2.5,2.5,0,0,0-2.37-1.49m-11.42,2.89a1.93,1.93,0,0,1,1.89-2.11,2,2,0,0,1,1.6.77v2.72a2,2,0,0,1-1.6.75,2,2,0,0,1-1.89-2.13m4.37,2.54v-5.31h-.86v.49a2.6,2.6,0,0,0-1.72-.61,2.91,2.91,0,0,0,0,5.81,2.42,2.42,0,0,0,1.71-.68v.3a1.79,1.79,0,0,1-1.86,2,2,2,0,0,1-1.78-.93l-.69.5a2.89,2.89,0,0,0,2.49,1.21,2.52,2.52,0,0,0,2.72-2.75m-9-4.65a1.29,1.29,0,0,1,1.35,1.44V148h.88v-3.7a1.93,1.93,0,0,0-2-2,2.51,2.51,0,0,0-1.84.76v-.64h-.86V148h.87v-4.22a2.26,2.26,0,0,1,1.65-.74m-4.44-.66h-.87V148h.87v-5.62Zm-.44-1a.61.61,0,0,0,.62-.6.61.61,0,0,0-.62-.61.6.6,0,0,0-.6.61.6.6,0,0,0,.6.6m-1.61,1h-.9l-1.51,4-.26.72-.26-.72-1.51-4h-1L95.43,148h1l2.19-5.62Zm-10,4.16c0-.55.36-.83,1.6-1.06l1.2-.21v1.28a2.41,2.41,0,0,1-1.77.84c-.63,0-1-.33-1-.85m2.8,1.46h.88v-3.65a2,2,0,0,0-2.19-2.08,2,2,0,0,0-2.27,1.8l.85.12a1.37,1.37,0,0,1,2.73.16v.24l-1.69.3c-1.46.26-2,.78-2,1.74a1.58,1.58,0,0,0,1.79,1.49,2.7,2.7,0,0,0,1.91-.84V148Zm-7.63.1c1.62,0,2.7-.95,2.7-2.22,0-.92-.43-1.51-1.81-1.95l-1.32-.43c-.88-.29-1.3-.64-1.3-1.27s.6-1.19,1.56-1.19a2.54,2.54,0,0,1,2,1l.69-.53a3.37,3.37,0,0,0-2.7-1.22c-1.45,0-2.46.81-2.46,2.08,0,.92.59,1.55,1.75,1.92l1.37.42c1,.33,1.3.74,1.3,1.27,0,.8-.71,1.39-1.8,1.39a3.16,3.16,0,0,1-2.27-1l-.63.57a4,4,0,0,0,2.91,1.16m-7-1.2a.58.58,0,1,0,.58.57.58.58,0,0,0-.58-.57m-6.12.3a3.19,3.19,0,0,0,2.26.93c1.19,0,2.07-.63,2.07-1.69,0-.76-.36-1.2-1.45-1.54l-1-.31c-.54-.17-.83-.4-.83-.83s.38-.8,1-.8a2,2,0,0,1,1.55.78l.62-.53a2.84,2.84,0,0,0-2.12-1c-1.06,0-1.92.57-1.92,1.58,0,.72.45,1.26,1.41,1.54l1,.29c.57.18.84.42.84.86s-.44.88-1.21.88a2.42,2.42,0,0,1-1.69-.74l-.6.53ZM67.16,143a1.7,1.7,0,0,1,1.7,1.7H65.45a1.81,1.81,0,0,1,1.71-1.7m2.53,3.82-.69-.39a1.94,1.94,0,0,1-1.69.92,2,2,0,0,1-1.89-1.93h4.36c0-.11,0-.21,0-.33a2.59,2.59,0,0,0-2.6-2.84,2.72,2.72,0,0,0-2.67,2.92,2.84,2.84,0,0,0,2.81,2.95,2.71,2.71,0,0,0,2.36-1.3m-5.81-3.74,0-.83a2.46,2.46,0,0,0-2.18,1.13v-1H60.8V148h.87v-3.7a2.45,2.45,0,0,1,2.21-1.21M58,148h.87v-5.62H58v4.24a2.26,2.26,0,0,1-1.63.71A1.28,1.28,0,0,1,55,145.93v-3.52h-.87v3.69a1.93,1.93,0,0,0,2,2.06,2.55,2.55,0,0,0,1.82-.73v.6Zm-7.52-5.74a2.94,2.94,0,0,0,0,5.87,2.56,2.56,0,0,0,2.36-1.49l-.77-.34a1.67,1.67,0,0,1-1.64,1,2.17,2.17,0,0,1,0-4.28,1.67,1.67,0,0,1,1.61,1l.79-.35a2.5,2.5,0,0,0-2.37-1.49m-11.42,2.89A1.93,1.93,0,0,1,41,143.07a2,2,0,0,1,1.6.77v2.72a2,2,0,0,1-1.6.75,2,2,0,0,1-1.89-2.13m4.37,2.54v-5.31h-.86v.49a2.6,2.6,0,0,0-1.72-.61,2.91,2.91,0,0,0,0,5.81,2.42,2.42,0,0,0,1.71-.68v.3a1.79,1.79,0,0,1-1.86,2,2,2,0,0,1-1.78-.93l-.69.5a2.89,2.89,0,0,0,2.49,1.21,2.52,2.52,0,0,0,2.72-2.75m-9-4.65a1.29,1.29,0,0,1,1.35,1.44V148h.88v-3.7a1.93,1.93,0,0,0-2-2,2.53,2.53,0,0,0-1.84.76v-.64h-.86V148h.87v-4.22a2.28,2.28,0,0,1,1.65-.74M30,142.41h-.87V148H30v-5.62Zm-.44-1a.61.61,0,0,0,.62-.6.61.61,0,0,0-.62-.61.6.6,0,0,0-.6.61.6.6,0,0,0,.6.6m-6.78,3.83a2,2,0,0,1,1.93-2.14,2.08,2.08,0,0,1,1.62.77v2.76a2,2,0,0,1-1.62.75,2,2,0,0,1-1.93-2.14M26.32,148h.88v-7.91h-.88v2.77a2.56,2.56,0,0,0-1.72-.6,2.94,2.94,0,0,0,0,5.86,2.43,2.43,0,0,0,1.72-.69V148Zm-8.18-5a1.28,1.28,0,0,1,1.34,1.44V148h.88v-3.7a1.92,1.92,0,0,0-2-2,2.54,2.54,0,0,0-1.84.76v-.64h-.87V148h.87v-4.22a2.3,2.3,0,0,1,1.66-.74m-4.45-.66h-.87V148h.87v-5.62Zm-.44-1a.6.6,0,0,0,.62-.6.61.61,0,1,0-1.22,0,.6.6,0,0,0,.6.6m-6,6.65v-3.51h3.18v-.81H7.28V141.2h4.15v-.78H6.35V148Z"/></svg>