<svg id="Calque_1" data-name="Calque 1" xmlns="http://www.w3.org/2000/svg" viewBox="0 0 29.18 40"><defs><style>.cls-1{fill:#fff;}.cls-2{fill:none;stroke:#fff;stroke-linecap:round;stroke-miterlimit:10;}</style></defs><title>picto-memphis</title><path class="cls-1" d="M26.47,40H2.72A2.72,2.72,0,0,1,0,37.28V6.55A2.72,2.72,0,0,1,2.72,3.83h4a.55.55,0,0,1,.54.55.54.54,0,0,1-.54.54h-4A1.63,1.63,0,0,0,1.09,6.55V37.28a1.63,1.63,0,0,0,1.63,1.63H26.47a1.64,1.64,0,0,0,1.63-1.63V6.55a1.64,1.64,0,0,0-1.63-1.63h-4a.55.55,0,0,1-.55-.54.55.55,0,0,1,.55-.55h4a2.72,2.72,0,0,1,2.71,2.72V37.28A2.72,2.72,0,0,1,26.47,40Z"/><path class="cls-1" d="M22.47,9.12H6.72a.55.55,0,0,1-.55-.54V2.92a.55.55,0,0,1,.55-.54h5a2.92,2.92,0,0,1,5.74,0h5a.54.54,0,0,1,.54.54V8.58A.54.54,0,0,1,22.47,9.12ZM7.26,8H21.92V3.46H17a.55.55,0,0,1-.55-.54,1.83,1.83,0,0,0-3.66,0,.55.55,0,0,1-.55.54h-5V8Z"/><path class="cls-1" d="M18.42,29.5H9.32a1,1,0,0,1-1-.95V20.33a.94.94,0,0,1,1-.95h9.1a1,1,0,0,1,.95.95v8.22A1,1,0,0,1,18.42,29.5Zm-9.05-1h9V20.38h-9Z"/><polyline class="cls-2" points="11.22 23.07 13.87 26.18 21.79 18.94"/></svg>