<svg id="Calque_1" data-name="Calque 1" xmlns="http://www.w3.org/2000/svg" viewBox="0 0 40.73 40"><defs><style>.cls-1{fill:#fff;}</style></defs><title>picto-memphis</title><path class="cls-1" d="M9,40a.59.59,0,0,1-.29-.07.63.63,0,0,1-.33-.55V30.59A15,15,0,0,1,0,16.7C0,7.18,8.75,0,20.36,0S40.73,7.18,40.73,16.7,32,33.4,20.36,33.4c-.38,0-.75,0-1.13,0h0L9.33,39.9A.61.61,0,0,1,9,40ZM20.36,1.23C9.46,1.23,1.23,7.88,1.23,16.7a13.71,13.71,0,0,0,8,13,.61.61,0,0,1,.34.55v8l9.1-6a.55.55,0,0,1,.37-.1h.23c.35,0,.7,0,1.06,0,10.91,0,19.13-6.65,19.13-15.47S31.27,1.23,20.36,1.23Z"/></svg>