<svg id="Calque_1" data-name="Calque 1" xmlns="http://www.w3.org/2000/svg" viewBox="0 0 58.89 45"><defs><style>.cls-1{fill:#fff;}</style></defs><title>picto-memphis</title><path class="cls-1" d="M54.44,45h-50A4.46,4.46,0,0,1,0,40.55V4.45A4.46,4.46,0,0,1,4.45,0h50a4.45,4.45,0,0,1,4.45,4.45v36.1A4.45,4.45,0,0,1,54.44,45ZM4.45,1.78A2.68,2.68,0,0,0,1.78,4.45v36.1a2.68,2.68,0,0,0,2.67,2.67h50a2.68,2.68,0,0,0,2.67-2.67V4.45a2.68,2.68,0,0,0-2.67-2.67Z"/><path class="cls-1" d="M44.75,1.78H14.14a.89.89,0,0,1,0-1.78H44.75a.89.89,0,1,1,0,1.78Z"/><path class="cls-1" d="M30.45,36.23h-21a.89.89,0,0,1-.89-.89V33a3.88,3.88,0,0,1,2.21-3.49l4.72-2.9A6.85,6.85,0,0,1,13,21.5l-.18-4.69a6.51,6.51,0,0,1,6.54-6.49h1.24a6.5,6.5,0,0,1,6.54,6.45L27,21.5a6.84,6.84,0,0,1-2.55,5.06l4.77,2.92A3.87,3.87,0,0,1,31.34,33v2.39A.89.89,0,0,1,30.45,36.23ZM10.38,34.45H29.56V33a2.08,2.08,0,0,0-1.2-1.88L28.28,31l-6-3.68a.89.89,0,0,1-.43-.8.91.91,0,0,1,.49-.76,5.09,5.09,0,0,0,2.84-4.35l.18-4.69a4.72,4.72,0,0,0-4.76-4.64H19.35a4.73,4.73,0,0,0-4.76,4.67l.18,4.66a5.09,5.09,0,0,0,2.83,4.35.87.87,0,0,1,.49.76.9.9,0,0,1-.42.79l-6,3.69A2.15,2.15,0,0,0,10.38,33v1.5Z"/><path class="cls-1" d="M46.32,29.48l-4.77-2.92A6.81,6.81,0,0,0,44.1,21.5l.19-4.73a6.51,6.51,0,0,0-6.55-6.45H36.5A6.51,6.51,0,0,0,30,16.81l.18,4.69a6.85,6.85,0,0,0,2.54,5.06L28,29.46a3.39,3.39,0,0,0-.38.2L29,30.88l5.78-3.55a.89.89,0,0,0,.43-.79.9.9,0,0,0-.5-.76,5.11,5.11,0,0,1-2.83-4.35l-.18-4.66A4.73,4.73,0,0,1,36.5,12.1h1.25a4.72,4.72,0,0,1,4.76,4.64l-.18,4.69a5.09,5.09,0,0,1-2.84,4.35.92.92,0,0,0-.5.76.89.89,0,0,0,.43.8l6,3.68.09.05A2.09,2.09,0,0,1,46.71,33v1.5H30.44v.76H25.75v.13a.89.89,0,0,0,.89.89h21a.88.88,0,0,0,.89-.89V33A3.87,3.87,0,0,0,46.32,29.48Z"/></svg>