<svg id="Calque_1" data-name="Calque 1" xmlns="http://www.w3.org/2000/svg" viewBox="0 0 40 40"><defs><style>.cls-1{fill:#fff;}</style></defs><title>picto-memphis</title><path class="cls-1" d="M20,40A20,20,0,1,1,40,20,20,20,0,0,1,20,40ZM20,1.21A18.79,18.79,0,1,0,38.79,20,18.81,18.81,0,0,0,20,1.21Zm0,0"/><path class="cls-1" d="M20,40A19.83,19.83,0,0,1,8.43,36.29a.59.59,0,0,1-.26-.57.63.63,0,0,1,.39-.49c5-1.86,5.84-3.37,5.84-6.26a2.12,2.12,0,0,0-.48-1.48,7.88,7.88,0,0,1-1.37-3.56c-.05-.31-.11-.33-.38-.46-.73-.36-1.41-.87-1.59-3.19a2.79,2.79,0,0,1,.71-2.07c-.07-.4-.19-1.09-.29-1.84C10.45,13,10.42,8.88,15.16,7c4.12-1.67,7.42-.76,8.46.33A5.48,5.48,0,0,1,27.55,9c2,2.35,1.38,7.71,1.16,9.16a2.77,2.77,0,0,1,.71,2c-.17,2.36-.85,2.87-1.59,3.23-.27.13-.33.15-.38.46a7.88,7.88,0,0,1-1.37,3.56A2.12,2.12,0,0,0,25.6,29c0,2.89.81,4.4,5.84,6.26a.62.62,0,0,1,.39.49.59.59,0,0,1-.25.57A19.84,19.84,0,0,1,20,40Zm-9.92-4a18.75,18.75,0,0,0,19.84,0c-4.21-1.74-5.53-3.48-5.53-7a3.23,3.23,0,0,1,.69-2.16,6.87,6.87,0,0,0,1.18-3.1,1.67,1.67,0,0,1,1-1.34c.37-.17.76-.36.9-2.18,0-.93-.42-1.18-.43-1.19a.62.62,0,0,1-.32-.65c.29-1.61.79-6.64-.83-8.52a4.25,4.25,0,0,0-3.19-1.31l-.16,0a1,1,0,0,1-.5-.32c-.33-.56-3.2-1.7-7.17-.09s-3.92,5-3.41,8.09c.16,1.16.35,2.17.35,2.17a.62.62,0,0,1-.34.66s-.41.26-.41,1.22c.13,1.78.52,2,.9,2.14a1.64,1.64,0,0,1,1,1.34,6.87,6.87,0,0,0,1.18,3.1A3.22,3.22,0,0,1,15.61,29c0,3.51-1.32,5.26-5.53,7Zm0,0"/></svg>